<?xml version="1.0" encoding="UTF-8" standalone="no"?>
<!-- Created with Inkscape (http://www.inkscape.org/) -->

<svg
   width="64pt"
   height="64pt"
   viewBox="0 0 22.577778 22.577778"
   version="1.1"
   id="svg831"
   inkscape:version="1.1.1 (3bf5ae0d25, 2021-09-20)"
   sodipodi:docname="EXPORT.svg"
   inkscape:export-filename="C:\Users\User\Desktop\CARLOS PROJECT\5. MAY 1\Done\FiledLine\13 - Bench Press.png"
   inkscape:export-xdpi="576"
   inkscape:export-ydpi="576"
   xmlns:inkscape="http://www.inkscape.org/namespaces/inkscape"
   xmlns:sodipodi="http://sodipodi.sourceforge.net/DTD/sodipodi-0.dtd"
   xmlns="http://www.w3.org/2000/svg"
   xmlns:svg="http://www.w3.org/2000/svg"
   xmlns:rdf="http://www.w3.org/1999/02/22-rdf-syntax-ns#"
   xmlns:cc="http://creativecommons.org/ns#"
   xmlns:dc="http://purl.org/dc/elements/1.1/">
  <defs
     id="defs825">
    <pattern
       id="EMFhbasepattern"
       patternUnits="userSpaceOnUse"
       width="6"
       height="6"
       x="0"
       y="0" />
    <pattern
       id="EMFhbasepattern-9"
       patternUnits="userSpaceOnUse"
       width="6"
       height="6"
       x="0"
       y="0" />
    <pattern
       id="EMFhbasepattern-0"
       patternUnits="userSpaceOnUse"
       width="6"
       height="6"
       x="0"
       y="0" />
    <pattern
       id="EMFhbasepattern-7"
       patternUnits="userSpaceOnUse"
       width="6"
       height="6"
       x="0"
       y="0" />
    <pattern
       id="EMFhbasepattern-2"
       patternUnits="userSpaceOnUse"
       width="6"
       height="6"
       x="0"
       y="0" />
    <pattern
       id="EMFhbasepattern-98"
       patternUnits="userSpaceOnUse"
       width="6"
       height="6"
       x="0"
       y="0" />
    <pattern
       id="EMFhbasepattern-6"
       patternUnits="userSpaceOnUse"
       width="6"
       height="6"
       x="0"
       y="0" />
    <pattern
       id="EMFhbasepattern-01"
       patternUnits="userSpaceOnUse"
       width="6"
       height="6"
       x="0"
       y="0" />
    <pattern
       id="EMFhbasepattern-07"
       patternUnits="userSpaceOnUse"
       width="6"
       height="6"
       x="0"
       y="0" />
    <pattern
       id="EMFhbasepattern-8"
       patternUnits="userSpaceOnUse"
       width="6"
       height="6"
       x="0"
       y="0" />
    <pattern
       id="EMFhbasepattern-4"
       patternUnits="userSpaceOnUse"
       width="6"
       height="6"
       x="0"
       y="0" />
    <pattern
       id="EMFhbasepattern-40"
       patternUnits="userSpaceOnUse"
       width="6"
       height="6"
       x="0"
       y="0" />
    <pattern
       id="EMFhbasepattern-08"
       patternUnits="userSpaceOnUse"
       width="6"
       height="6"
       x="0"
       y="0" />
    <pattern
       id="EMFhbasepattern-04"
       patternUnits="userSpaceOnUse"
       width="6"
       height="6"
       x="0"
       y="0" />
    <pattern
       id="EMFhbasepattern-014"
       patternUnits="userSpaceOnUse"
       width="6"
       height="6"
       x="0"
       y="0" />
    <pattern
       id="EMFhbasepattern-27"
       patternUnits="userSpaceOnUse"
       width="6"
       height="6"
       x="0"
       y="0" />
    <pattern
       id="EMFhbasepattern-09"
       patternUnits="userSpaceOnUse"
       width="6"
       height="6"
       x="0"
       y="0" />
    <pattern
       id="EMFhbasepattern-5"
       patternUnits="userSpaceOnUse"
       width="6"
       height="6"
       x="0"
       y="0" />
    <pattern
       id="EMFhbasepattern-018"
       patternUnits="userSpaceOnUse"
       width="6"
       height="6"
       x="0"
       y="0" />
  </defs>
  <sodipodi:namedview
     id="base"
     pagecolor="#ffffff"
     bordercolor="#666666"
     borderopacity="1.0"
     inkscape:pageopacity="0.0"
     inkscape:pageshadow="2"
     inkscape:zoom="9.1757813"
     inkscape:cx="31.822903"
     inkscape:cy="43.320562"
     inkscape:document-units="pt"
     inkscape:current-layer="layer1"
     showgrid="false"
     units="pt"
     inkscape:window-width="1920"
     inkscape:window-height="1001"
     inkscape:window-x="-9"
     inkscape:window-y="-9"
     inkscape:window-maximized="1"
     inkscape:pagecheckerboard="true"
     inkscape:showpageshadow="false"
     inkscape:object-paths="true"
     inkscape:snap-intersection-paths="true"
     inkscape:snap-smooth-nodes="true"
     inkscape:snap-midpoints="true"
     showguides="true"
     inkscape:snap-bbox="true"
     inkscape:bbox-nodes="true"
     inkscape:snap-nodes="false"
     inkscape:snap-global="true">
    <inkscape:grid
       type="xygrid"
       id="grid1378" />
    <sodipodi:guide
       position="0.97013831,21.607643"
       orientation="78.000048,0"
       id="guide1380"
       inkscape:locked="false" />
    <sodipodi:guide
       position="0.97013831,0.97013129"
       orientation="0,78.000005"
       id="guide1382"
       inkscape:locked="false" />
    <sodipodi:guide
       position="21.607639,0.97013129"
       orientation="-78.000048,0"
       id="guide1384"
       inkscape:locked="false" />
    <sodipodi:guide
       position="21.607639,21.607643"
       orientation="0,-78.000005"
       id="guide1386"
       inkscape:locked="false" />
  </sodipodi:namedview>
  <metadata
     id="metadata828">
    <rdf:RDF>
      <cc:Work
         rdf:about="">
        <dc:format>image/svg+xml</dc:format>
        <dc:type
           rdf:resource="http://purl.org/dc/dcmitype/StillImage" />
      </cc:Work>
    </rdf:RDF>
  </metadata>
  <g
     inkscape:label="Icon"
     inkscape:groupmode="layer"
     id="layer1"
     transform="translate(0,-274.42223)">
    <g
       id="g7942"
       style="display:inline;stroke-width:0.807654"
       transform="matrix(1.2381541,0,0,1.2381541,-36.961671,-110.84884)">
      <g
         id="g614402"
         style="display:inline;stroke-width:0.807654">
        <path
           style="color:#000000;fill:#3a4d5c;fill-opacity:1;stroke-width:0.807654;stroke-linecap:round;stroke-linejoin:round;-inkscape-stroke:none"
           d="m 38.439453,323.58984 a 0.26460996,0.26460996 0 0 0 -0.263672,0.26563 v 3.96875 a 0.26460996,0.26460996 0 0 0 0.263672,0.26367 h 1.058594 a 0.26460996,0.26460996 0 0 0 0.265625,-0.26367 v -3.96875 a 0.26460996,0.26460996 0 0 0 -0.265625,-0.26563 z"
           id="path3068" />
        <path
           id="path13894"
           style="color:#000000;fill:#143441;fill-opacity:1;stroke-width:0.807654;stroke-linecap:round;stroke-linejoin:round;-inkscape-stroke:none"
           d="m 38.439514,323.58958 a 0.26460996,0.26460996 0 0 0 -0.263548,0.26614 v 0.79272 h 0.792715 a 0.26460996,0.26460996 0 0 1 0.265618,0.26561 v 3.17397 h 0.263549 a 0.26460996,0.26460996 0 0 0 0.265618,-0.26355 v -3.96875 a 0.26460996,0.26460996 0 0 0 -0.265618,-0.26614 z" />
        <path
           style="color:#000000;fill:#3a4d5c;fill-opacity:1;stroke-width:0.807654;stroke-linecap:round;stroke-linejoin:round;-inkscape-stroke:none"
           d="m 38.175781,313.53711 a 0.26460996,0.26460996 0 0 0 -0.263672,0.26367 v 1.32227 c 5e-6,0.43523 0.357726,0.79492 0.792969,0.79492 h 0.529297 c 0.435237,0 0.792963,-0.35968 0.792969,-0.79492 v -1.32227 a 0.26460996,0.26460996 0 0 0 -0.263672,-0.26367 z"
           id="path3600" />
        <path
           style="color:#000000;fill:#3a4d5c;fill-opacity:1;stroke-width:0.807654;stroke-linecap:round;stroke-linejoin:round;-inkscape-stroke:none"
           d="m 35.105367,312.87014 c -0.146169,5.1e-4 -0.264231,0.11945 -0.263672,0.26562 v 0.78013 c 5.15e-4,0.1454 0.118264,0.26315 0.263672,0.26367 h 1.906352 c 0.143184,6.2e-4 0.260892,-0.11276 0.265625,-0.25586 l 0.0098,-0.29297 3.46875,-0.0558 0.322266,0.51172 c 0.04871,0.0769 0.133555,0.12341 0.224609,0.12305 h 1.529364 c 0.14617,5.6e-4 0.265107,-0.1175 0.265625,-0.26367 v -0.81023 c 5.84e-4,-0.14695 -0.118677,-0.26623 -0.265625,-0.26566 z"
           id="path2516"
           sodipodi:nodetypes="ccccccccccccccc" />
        <path
           style="color:#000000;fill:#ececec;stroke-width:0.807654;stroke-linecap:round;stroke-linejoin:round;-inkscape-stroke:none"
           d="m 31.429921,315.47914 c -0.289107,0 -0.529297,0.16568 -0.529297,0.4548 v 0.43882 c 0,0.28912 0.240178,0.52929 0.529297,0.52929 h 0.936192 c 0.289107,0 0.396251,-0.24017 0.396251,-0.52929 v -0.43882 c 0,-0.28912 -0.107132,-0.4548 -0.396251,-0.4548 z"
           id="path1725"
           sodipodi:nodetypes="sssssssss" />
        <path
           style="color:#000000;fill:#dc1c4b;stroke-width:0.807654;stroke-linecap:round;stroke-linejoin:round;-inkscape-stroke:none"
           d="m 33.55243,317.34667 c -0.435244,0 -0.794924,0.35968 -0.794921,0.79493 0,0 0,1.2377 0,1.09401 -3e-6,0.43525 0.359683,0.79493 0.794921,0.79493 h 0.263205 c 0.435239,0 0.792972,-0.35968 0.792969,-0.79493 v -1.09401 c 3e-6,-0.43525 -0.357724,-0.79493 -0.792969,-0.79493 z"
           id="path4002"
           sodipodi:nodetypes="sccssccss" />
        <path
           style="color:#000000;fill:#ececec;stroke-width:0.807654;stroke-linecap:round;stroke-linejoin:round;-inkscape-stroke:none"
           d="m 34.286858,312.09291 c -0.435245,0 -0.792969,0.27789 -0.792969,0.71314 v 1.4442 c 0,0.43524 0.357724,0.79297 0.792969,0.79297 h 0.114661 c 0.435245,0 0.794925,-0.35773 0.794922,-0.79297 v -1.4442 c 3e-6,-0.43525 -0.359677,-0.71314 -0.794922,-0.71314 z"
           id="path2510"
           sodipodi:nodetypes="sssssccss" />
        <path
           id="path39533"
           style="color:#000000;fill:#143441;fill-opacity:1;stroke-width:3.05255;stroke-linecap:round;stroke-linejoin:round;-inkscape-stroke:none"
           d="M 144.28711,126.50195 A 1.0001006,1.0001006 0 0 0 143.28906,127.5 v 3.00391 h 7.9961 V 127.5 a 1.0001006,1.0001006 0 0 0 -0.99805,-0.99805 z"
           transform="matrix(0.26458334,0,0,0.26458334,0,280.06666)" />
        <path
           id="path2790"
           style="color:#000000;fill:#ececec;stroke-width:3.05255;stroke-linecap:round;stroke-linejoin:round;-inkscape-stroke:none"
           d="m 140.28516,122.40831 c -2.74957,0 -5.02951,2.25451 -4.99805,5.0039 l 0.56891,49.71359 c 0.006,0.56417 -0.43978,0.99609 -1.00391,0.99609 h -3.71555 c -1.64494,0 -2.99804,-0.005 -2.99804,1.64048 0,1.645 1.3531,2.9961 2.99804,2.9961 h 32.17949 c 1.64495,0 3.00586,-0.7253 3.00586,-2.3703 0,-1.645 -1.36091,-2.26628 -3.00586,-2.26628 h -3.54487 c -0.56412,0 -1.0019,-0.43191 -0.99609,-0.99609 l 0.51202,-49.71359 c 0.0283,-2.74943 -2.24848,-5.0039 -4.99805,-5.0039 z m 1.0039,6.0956 h 11.9961 V 176.5 c 0,0.56421 -0.43197,0.99609 -0.9961,0.99609 h -10.0039 c -0.56413,0 -0.9961,-0.43188 -0.9961,-0.99609 z"
           sodipodi:nodetypes="sssssssssssssssccssssc"
           transform="matrix(0.26458334,0,0,0.26458334,0,280.06666)" />
        <path
           style="color:#000000;fill:#ececec;stroke-width:0.807654;stroke-linecap:round;stroke-linejoin:round;-inkscape-stroke:none"
           d="m 45.583984,315.38867 c -0.289119,0 -0.529296,0.24018 -0.529297,0.5293 v 0.5293 c 0,0.28912 0.24019,0.52929 0.529297,0.52929 h 1.058594 c 0.289119,0 0.529297,-0.24017 0.529297,-0.52929 v -0.5293 c 0,-0.28912 -0.24019,-0.5293 -0.529297,-0.5293 z"
           id="path1917" />
        <path
           style="color:#000000;fill:#dc1c4b;stroke-width:0.807654;stroke-linecap:round;stroke-linejoin:round;-inkscape-stroke:none"
           d="m 43.996094,317.24023 c -0.435245,0 -0.792972,0.35968 -0.792969,0.79493 v 1.58593 c -3e-6,0.43525 0.35773,0.79493 0.792969,0.79493 h 0.529297 c 0.435238,0 0.794924,-0.35968 0.794921,-0.79493 v -1.58593 c 3e-6,-0.43525 -0.359676,-0.79493 -0.794921,-0.79493 z"
           id="path3810" />
        <path
           style="color:#000000;fill:#ececec;stroke-width:0.807654;stroke-linecap:round;stroke-linejoin:round;-inkscape-stroke:none"
           d="m 43.466797,311.94922 c -0.435245,0 -0.792972,0.35773 -0.792969,0.79297 v 1.58789 c -3e-6,0.43524 0.357724,0.79297 0.792969,0.79297 h 0.265625 c 0.435245,0 0.792972,-0.35773 0.792969,-0.79297 v -1.58789 c 3e-6,-0.43524 -0.357724,-0.79297 -0.792969,-0.79297 z"
           id="path2127" />
        <path
           style="color:#000000;fill:#dc1c4b;stroke-width:0.807654;stroke-linecap:round;stroke-linejoin:round;-inkscape-stroke:none"
           d="m 35.265625,321.47461 c -0.435225,0 -0.794922,0.35773 -0.794922,0.79297 0,0.43525 0.359703,0.79297 0.794922,0.79297 h 7.408203 c 0.435225,0 0.792969,-0.35773 0.792969,-0.79297 0,-0.43524 -0.357744,-0.79297 -0.792969,-0.79297 z"
           id="path4194" />
        <path
           style="color:#000000;fill:#dc1c4b;stroke-width:0.807654;stroke-linecap:round;stroke-linejoin:round;-inkscape-stroke:none"
           d="m 38.351562,316.97656 h 1.234375 c 0.550603,0 0.970708,0.39859 0.970704,0.86914 v 1.70117 c -5e-6,0.47055 -0.420108,0.86915 -0.970704,0.86915 h -1.234375 c -0.550594,0 -0.968745,-0.3986 -0.96875,-0.86915 v -1.70117 c -4e-6,-0.47055 0.418149,-0.86914 0.96875,-0.86914 z"
           id="path3273" />
        <path
           id="path12544"
           style="color:#000000;fill:#cccccc;fill-opacity:1;stroke-width:3.05255;stroke-linecap:round;stroke-linejoin:round;-inkscape-stroke:none"
           d="m 135.28711,176.5 c 0,0.56421 -0.43978,0.99609 -1.00391,0.99609 h -4 c -1.47507,0 -2.55541,1.05088 -2.85058,2.12959 0.27689,-0.11102 0.56927,-0.127 0.84985,-0.127 h 6 32.81836 c -0.41951,-1.1578 -1.52602,-2.00196 -2.81836,-2.00196 h -4 -7.99414 -10.0039 -6.99805 z"
           transform="matrix(0.26458334,0,0,0.26458334,0,280.06666)"
           sodipodi:nodetypes="cscccccsccccc" />
        <path
           id="path27951"
           style="color:#000000;fill:#b01d47;fill-opacity:1;stroke-width:0.807654;stroke-linecap:round;stroke-linejoin:round;-inkscape-stroke:none"
           d="m 35.265549,321.47447 c -0.355834,0 -0.660602,0.2392 -0.760161,0.56431 0.07324,-0.0225 0.150865,-0.0351 0.230994,-0.0351 h 7.408334 c 0.435223,0 0.792715,0.35799 0.792715,0.79323 0,0.0797 -0.01183,0.15665 -0.0341,0.22944 0.324649,-0.0994 0.563272,-0.40308 0.563272,-0.75861 0,-0.43524 -0.357492,-0.79323 -0.792716,-0.79323 z" />
        <path
           id="path33542"
           style="color:#000000;fill:#b01d47;fill-opacity:1;stroke-width:0.807654;stroke-linecap:round;stroke-linejoin:round;-inkscape-stroke:none"
           d="m 38.351665,316.97655 c -0.442328,0 -0.799187,0.25741 -0.922425,0.60255 0.119063,-0.047 0.251905,-0.0734 0.393258,-0.0734 h 1.234033 c 0.550603,0 0.971005,0.39865 0.971002,0.8692 v 1.70119 c -3e-6,0.0922 -0.01643,0.18139 -0.04651,0.26561 0.344125,-0.13653 0.57567,-0.44573 0.575675,-0.79478 v -1.70119 c 2e-6,-0.47055 -0.420399,-0.8692 -0.971003,-0.8692 z" />
      </g>
      <path
         id="path3444"
         style="color:#000000;fill:#000000;stroke-width:3.05255;stroke-linecap:round;stroke-linejoin:round;-inkscape-stroke:none"
         d="m 158.27906,123.49805 c -0.91405,-1.21271 -2.36465,-2 -3.99024,-2 h -14.0039 c -1.62559,0 -3.07619,0.78729 -3.99024,2 h -3.00805 c 1e-5,-1.64504 -1.35889,-2.9961 -3.00391,-2.9961 h -1.07374 c -1.61005,0.0413 -2.91992,1.37676 -2.91992,2.9961 V 129.5 c 0,1.47453 1.08618,2.71213 2.4961,2.95312 v 2.04297 c 0,0.56414 -0.43394,1.00586 -0.99805,1.00586 h -3.49805 c 0,-1.09273 -0.90726,-2.00195 -2,-2.00195 h -4.00195 c -1.09269,0 -2,0.90922 -2,2.00195 v 2 c 0,1.09274 0.90727,2 2,2 h 4.00195 c 1.09269,0 2,-0.90726 2,-2 h 2 v 2.9961 c -1.64501,0 -3.00392,1.36082 -3.0039,3.00586 v 5.99218 c -2e-5,1.64504 1.35891,3.00586 3.0039,3.00586 h 2 c 1.645,0 2.99806,-1.36082 2.99805,-3.00586 v -5.99218 c 10e-6,-1.64504 -1.35303,-3.00586 -2.99805,-3.00586 v -3.03907 c 1.40992,-0.24222 2.4961,-1.48833 2.4961,-2.96289 v -2.04297 c 1.41023,-0.24177 2.50196,-1.47925 2.50195,-2.95312 h 2 v 27.00195 h -2 c -1.64495,0 -3.00391,1.35305 -3.00391,2.99805 0,1.64504 1.35899,2.99609 3.00391,2.99609 h 28 c 1.64494,0 2.99609,-1.35109 2.99609,-2.99609 0,-1.645 -1.35115,-2.99805 -2.99609,-2.99805 h -2 V 129.5 h 2 c -1e-5,1.47661 1.08913,2.71657 2.50195,2.95508 v 2.04101 c 0,1.47456 1.08618,2.72067 2.4961,2.96289 v 3.03907 c -1.64502,0 -2.99806,1.36082 -2.99805,3.00586 v 5.99218 c -1e-5,1.64504 1.35305,3.00586 2.99805,3.00586 h 2 c 1.64499,0 3.00391,-1.36082 3.0039,-3.00586 v -5.99218 c 1e-5,-1.64504 -1.35888,-3.00586 -3.0039,-3.00586 v -2.9961 h 2 c 0,1.09274 0.90731,2 2,2 h 4.00195 c 1.09273,0 2,-0.90726 2,-2 v -2 c 0,-1.09273 -0.90731,-2.00195 -2,-2.00195 h -4.00195 c -1.09274,0 -2,0.90922 -2,2.00195 h -3.49805 c -0.56411,0 -0.99805,-0.44172 -0.99805,-1.00586 v -2.04297 c 1.40992,-0.24099 2.49611,-1.47859 2.4961,-2.95312 v -6.00195 c 1e-5,-1.645 -1.35303,-2.9961 -2.99805,-2.9961 h -1.00391 c -1.64502,0 -2.9961,1.3511 -2.99609,2.9961 z m -27.99589,-0.9961 c 0.56413,0 1.00391,0.43196 1.00391,0.9961 v 5.00586 0.99609 c 0,0.56409 -0.43978,1.00391 -1.00391,1.00391 h -0.99609 c -0.56413,0 -0.99805,-0.43982 -0.99805,-1.00391 v -6.00195 c 0,-0.54651 0.40708,-0.9702 0.94532,-0.9961 z m 35.00396,0 c 0.56412,0 0.99805,0.43196 0.99805,0.9961 V 129.5 c 0,0.56413 -0.43393,1.00391 -0.99805,1.00391 h -1.00391 c -0.56413,0 -0.99609,-0.43978 -0.99609,-1.00391 2.5e-4,-2.0478 1e-5,-4.22248 0,-6.00195 0,-0.54651 0.40707,-0.9702 0.94531,-0.9961 z m -25.00197,0.9961 h 14.0039 c 1.66869,0 2.9961,1.3352 2.9961,3.0039 v 30 h -2 v -27.99804 c 0,-1.09274 -0.90732,-2.00196 -2,-2.00196 h -11.9961 c -1.09273,0 -2,0.90922 -2,2.00196 v 27.99804 h -2 v -27.99804 -2.00196 c 0,-1.6687 1.32741,-3.0039 2.9961,-3.0039 z m -6.99805,2 h 2.10351 c -0.13417,0.69179 -0.10351,1.25902 -0.10351,2.00195 h -2 z m 25.89648,0 h 2.10352 V 127.5 h -2 c 0,-0.86398 0.0317,-1.51866 -0.10352,-2.00195 z m -17.89453,3.00586 h 2 v 3.99218 c 2e-5,1.64497 1.35304,3.00586 2.99805,3.00586 v 2 h -1.33594 c -1.38257,0 -2.66734,0.47009 -3.66211,1.25782 z m 3.99414,0 h 4 v 3.99218 c 0,0.56414 -0.43196,1.00391 -0.99609,1.00391 h -2 c -0.5641,0 -1.0039,-0.43985 -1.00391,-1.00391 z m 6.00196,0 h 2 v 10.25976 c -0.99702,-0.78979 -2.28534,-1.26172 -3.66993,-1.26172 h -1.32812 v -2 c 1.64499,0 2.99802,-1.36085 2.99805,-3.00586 z m -32.99805,6.99804 h 4.00195 v 2 h -4.00195 z m 53.99805,0 h 4.00195 v 2 h -4.00195 z m -27.33399,4 h 4.66406 c 2.08102,0 3.66994,1.5067 3.66993,3.28516 v 6.42969 c -2e-5,1.77845 -1.58893,3.28515 -3.66993,3.28515 h -4.66406 c -2.08098,0 -3.66209,-1.5067 -3.66211,-3.28515 v -6.42969 c -1e-5,-1.77846 1.5811,-3.28516 3.66211,-3.28516 z M 128.28903,142.5 c 0.56413,0 0.99805,0.43977 0.99805,1.00391 v 5.99218 c 0,0.56421 -0.4339,1.00586 -0.99805,1.00586 h -2 c -0.56414,0 -1.00391,-0.44165 -1.0039,-1.00586 v -5.99218 c -10e-6,-0.54651 0.4125,-0.97758 0.95117,-1.00391 z m 39.99609,0 c 0.56412,0 1.00391,0.43977 1.0039,1.00391 v 5.99218 c 1e-5,0.56421 -0.43976,1.00586 -1.0039,1.00586 h -2 c -0.56415,0 -0.99805,-0.44165 -0.99805,-1.00586 v -5.99218 c 0,-0.54651 0.40707,-0.97758 0.94531,-1.00391 z m -14.99996,10.73828 v 3.26367 h -11.9961 v -3.25976 c 0.99479,0.78782 2.27947,1.25976 3.66211,1.25976 h 4.66406 c 1.38465,0 2.6729,-0.47379 3.66993,-1.26367 z m -19.99805,5.26563 h 28 c 0.56408,0 0.99609,0.43188 0.99609,0.99609 0,0.56425 -0.43201,1.00391 -0.99609,1.00391 h -28 c -0.56411,0 -1.00391,-0.43959 -1.00391,-1.00391 0,-0.56421 0.43983,-0.99609 1.00391,-0.99609 z m 2.99805,4.99609 c -0.55,0.001 -0.9959,0.44609 -0.99805,0.99609 V 176.5 c 0,0.56421 -0.43978,0.99609 -1.00391,0.99609 h -4 c -1.64494,0 -2.99804,1.36086 -2.99804,3.00586 0,1.645 1.3531,2.9961 2.99804,2.9961 h 34 c 1.64495,0 3.00586,-1.3511 3.00586,-2.9961 0,-1.645 -1.36091,-3.00586 -3.00586,-3.00586 h -4 c -0.56412,0 -0.99609,-0.43188 -0.99609,-0.99609 v -12.00391 c -0.002,-0.55 -0.44805,-0.99502 -0.99805,-0.99609 -0.55228,-0.002 -1.00174,0.44381 -1.0039,0.99609 V 176.5 c 0,1.64504 1.35303,2.99609 2.99804,2.99609 h 4 c 0.56409,0 1.00391,0.44166 1.00391,1.00586 0,0.56425 -0.43982,0.9961 -1.00391,0.9961 h -34 c -0.56408,0 -0.99609,-0.43185 -0.99609,-0.9961 0,-0.5642 0.43201,-1.00586 0.99609,-1.00586 h 4 c 1.64502,0 3.00586,-1.35105 3.00586,-2.99609 v -12.00391 c -0.002,-0.55228 -0.45162,-0.99825 -1.0039,-0.99609 z m 4,0 c -0.54924,0.002 -0.99396,0.44685 -0.9961,0.99609 V 176.5 c -1e-5,1.64504 1.35108,2.99609 2.9961,2.99609 h 10.0039 c 1.64502,0 2.99611,-1.35105 2.9961,-2.99609 v -12.00391 c -0.002,-0.54924 -0.44686,-0.99395 -0.9961,-0.99609 -0.55228,-0.002 -1.00174,0.44381 -1.0039,0.99609 V 176.5 c 0,0.56421 -0.43197,0.99609 -0.9961,0.99609 h -2.00195 v -10.99804 h 0.99805 c 0.55229,0.002 1.00175,-0.44381 1.0039,-0.9961 0.003,-0.5561 -0.44779,-1.00804 -1.0039,-1.00586 h -7.9961 c -0.55611,-0.002 -1.00716,0.44976 -1.0039,1.00586 0.002,0.55229 0.45161,0.99826 1.0039,0.9961 h 0.99805 v 10.99804 h -2.00195 c -0.56413,0 -0.9961,-0.43188 -0.9961,-0.99609 v -12.00391 c -0.002,-0.55228 -0.45162,-0.99825 -1.0039,-0.99609 z m 6.00195,2.99805 h 2 v 10.99804 h -2 z"
         transform="matrix(0.26458334,0,0,0.26458334,0,280.06666)"
         sodipodi:nodetypes="cssccccsscsscsssssscccccssssccsccccssssssccccsccsssssscccsssssscsscsssscccccssssscccssssccccsssccsssccccsscccccccccccccccsccccssscccccsccccccccccccccssscsscsscsssscccccccssssccccccsscsssssssccsssssssssscccssssssssssccsccssccscssccccccccccsscsccccc" />
    </g>
  </g>
</svg>
