<svg width="54" height="56" viewBox="0 0 54 56" fill="none" xmlns="http://www.w3.org/2000/svg">
<path d="M27 18.375C30.4256 18.375 32.9062 13.6675 32.9062 10.5C32.9056 9.052 32.4103 7.65107 31.5083 6.54581C30.6062 5.44055 29.3557 4.70245 27.9787 4.4625C27.8582 4.44131 27.7346 4.44755 27.6166 4.48079C27.4986 4.51403 27.389 4.57347 27.2953 4.655C27.2022 4.73536 27.1269 4.83557 27.0745 4.94881C27.0221 5.06205 26.9938 5.18566 26.9916 5.31125C26.9802 5.87493 26.8377 6.42743 26.5761 6.92172C26.3146 7.416 25.9418 7.83745 25.4894 8.1502C25.0371 8.46294 24.5185 8.65773 23.978 8.71798C23.4374 8.77823 22.8908 8.70216 22.3847 8.49625C22.2721 8.45022 22.1514 8.42982 22.0305 8.43646C21.9097 8.44309 21.7917 8.47659 21.6845 8.53468C21.5772 8.59277 21.4833 8.6741 21.409 8.77315C21.3348 8.8722 21.2819 8.98665 21.2541 9.10875C21.1477 9.56429 21.0939 10.0313 21.0938 10.5C21.0938 13.6675 23.5744 18.375 27 18.375ZM22.7812 10.4212C23.0597 10.4735 23.342 10.4999 23.625 10.5C24.7688 10.4988 25.8784 10.0959 26.7732 9.3571C27.668 8.61826 28.2952 7.58697 28.5525 6.43125C29.339 6.75407 30.0138 7.31464 30.4893 8.04019C30.9647 8.76574 31.2189 9.62276 31.2188 10.5C31.2188 13.125 29.1347 16.625 27 16.625C24.8653 16.625 22.7812 13.125 22.7812 10.5V10.4212Z" fill="#F45B66"/>
<path d="M52.3125 46.375H39.6562V45.5C39.6562 45.2679 39.5674 45.0454 39.4091 44.8813C39.2509 44.7172 39.0363 44.625 38.8125 44.625H34.5938V36.5925C35.0861 36.412 35.5126 36.0779 35.8147 35.6362C36.1168 35.1944 36.2798 34.6666 36.2812 34.125V24.1675L45.9422 19.1537C46.1039 19.0719 46.2361 18.9387 46.3196 18.7734C46.4031 18.6081 46.4335 18.4194 46.4062 18.235L44.9381 9.17C44.9261 8.79545 44.837 8.42791 44.6766 8.09208C44.5162 7.75625 44.2884 7.45993 44.0084 7.22303C43.7284 6.98614 43.4027 6.81416 43.0532 6.71868C42.7038 6.62319 42.3387 6.6064 41.9825 6.66944C41.6262 6.73248 41.2872 6.87388 40.988 7.08415C40.6889 7.29441 40.4367 7.56866 40.2483 7.88845C40.0599 8.20824 39.9397 8.56616 39.8958 8.93814C39.8519 9.31012 39.8853 9.68753 39.9938 10.045L40.8375 15.0938L36.0366 17.1938C36.2718 16.5145 36.5538 15.8536 36.8803 15.2162C37.0498 14.8353 37.1335 14.4194 37.125 14C37.1253 13.4569 36.9631 12.9271 36.6609 12.4836C36.3587 12.0401 35.9312 11.7048 35.4375 11.5238V9.625C35.4375 7.30436 34.5485 5.07876 32.9662 3.43782C31.3839 1.79687 29.2378 0.875 27 0.875C24.7622 0.875 22.6161 1.79687 21.0338 3.43782C19.4514 5.07876 18.5625 7.30436 18.5625 9.625V11.5238C18.0688 11.7048 17.6413 12.0401 17.3391 12.4836C17.0369 12.9271 16.8747 13.4569 16.875 14C16.8769 14.4194 16.9721 14.8326 17.1534 15.2075C17.4767 15.8435 17.7586 16.5012 17.9972 17.1762L13.1962 15.0763L14.04 10.0275C14.0603 9.39324 13.8583 8.77284 13.4715 8.28111C13.0847 7.78938 12.5392 7.45963 11.9359 7.35287C11.3327 7.24612 10.7126 7.36961 10.1904 7.70047C9.66825 8.03133 9.27932 8.54716 9.09562 9.1525L7.59375 18.235C7.56584 18.4185 7.59494 18.6064 7.67685 18.7716C7.75876 18.9367 7.88923 19.0706 8.04938 19.1537L17.7188 24.1675V34.125C17.7202 34.6666 17.8832 35.1944 18.1853 35.6362C18.4874 36.0779 18.9139 36.412 19.4062 36.5925V44.625H15.1875C14.9637 44.625 14.7491 44.7172 14.5909 44.8813C14.4326 45.0454 14.3438 45.2679 14.3438 45.5V46.375H1.6875C1.46372 46.375 1.24911 46.4672 1.09088 46.6313C0.932645 46.7954 0.84375 47.0179 0.84375 47.25V54.25C0.84375 54.4821 0.932645 54.7046 1.09088 54.8687C1.24911 55.0328 1.46372 55.125 1.6875 55.125H15.1875C15.4113 55.125 15.6259 55.0328 15.7841 54.8687C15.9424 54.7046 16.0312 54.4821 16.0312 54.25V53.375H37.9688V54.25C37.9688 54.4821 38.0576 54.7046 38.2159 54.8687C38.3741 55.0328 38.5887 55.125 38.8125 55.125H52.3125C52.5363 55.125 52.7509 55.0328 52.9091 54.8687C53.0674 54.7046 53.1562 54.4821 53.1562 54.25V47.25C53.1562 47.0179 53.0674 46.7954 52.9091 46.6313C52.7509 46.4672 52.5363 46.375 52.3125 46.375ZM19.4062 13.125C19.63 13.125 19.8446 13.0328 20.0029 12.8687C20.1611 12.7046 20.25 12.4821 20.25 12.25V9.625C20.25 7.76848 20.9612 5.98801 22.227 4.67525C23.4929 3.3625 25.2098 2.625 27 2.625C28.7902 2.625 30.5071 3.3625 31.773 4.67525C33.0388 5.98801 33.75 7.76848 33.75 9.625V12.25C33.75 12.4821 33.8389 12.7046 33.9971 12.8687C34.1554 13.0328 34.37 13.125 34.5938 13.125C34.8175 13.125 35.0321 13.2172 35.1904 13.3813C35.3486 13.5454 35.4375 13.7679 35.4375 14C35.438 14.1399 35.4062 14.278 35.3447 14.4025C34.8348 15.3863 34.4302 16.425 34.1381 17.5H30.375C30.1512 17.5 29.9366 17.5922 29.7784 17.7563C29.6201 17.9204 29.5312 18.1429 29.5312 18.375C29.5312 19.0712 29.2646 19.7389 28.7899 20.2312C28.3152 20.7234 27.6713 21 27 21C26.3287 21 25.6848 20.7234 25.2101 20.2312C24.7354 19.7389 24.4688 19.0712 24.4688 18.375C24.4688 18.1429 24.3799 17.9204 24.2216 17.7563C24.0634 17.5922 23.8488 17.5 23.625 17.5H19.8619C19.5688 16.4294 19.1672 15.394 18.6638 14.4112C18.5954 14.2781 18.5614 14.1289 18.565 13.9781C18.5687 13.8273 18.6098 13.68 18.6846 13.5506C18.7593 13.4211 18.865 13.3139 18.9914 13.2394C19.1179 13.1648 19.2608 13.1254 19.4062 13.125ZM18.9422 22.8463L9.37406 17.885L10.7241 9.45875C10.7618 9.25652 10.8671 9.07457 11.0214 8.94492C11.1757 8.81528 11.3692 8.74625 11.5678 8.75C11.6862 8.75139 11.803 8.7786 11.9105 8.82985C12.0181 8.88111 12.1141 8.95526 12.1922 9.0475C12.2685 9.14257 12.3245 9.25333 12.3565 9.37249C12.3885 9.49164 12.3957 9.61647 12.3778 9.73875L11.4581 15.47C11.4282 15.6636 11.4619 15.8619 11.5537 16.0333C11.6455 16.2046 11.7901 16.3391 11.9644 16.415L18.2672 19.18C18.3607 19.2216 18.4608 19.2453 18.5625 19.25H22.8656C23.0593 20.239 23.5767 21.1282 24.3302 21.7668C25.0836 22.4055 26.0269 22.7544 27 22.7544C27.9731 22.7544 28.9164 22.4055 29.6698 21.7668C30.4233 21.1282 30.9407 20.239 31.1344 19.25H35.4375C35.5506 19.2498 35.6625 19.226 35.7666 19.18L42.0694 16.415C42.2436 16.3391 42.3883 16.2046 42.4801 16.0333C42.5719 15.8619 42.6055 15.6636 42.5756 15.47L41.6559 9.73875C41.638 9.61647 41.6453 9.49164 41.6773 9.37249C41.7093 9.25333 41.7653 9.14257 41.8416 9.0475C41.9197 8.95526 42.0157 8.88111 42.1232 8.82985C42.2308 8.7786 42.3476 8.75139 42.4659 8.75C42.6645 8.74625 42.858 8.81528 43.0124 8.94492C43.1667 9.07457 43.272 9.25652 43.3097 9.45875L44.6597 17.885L35.0578 22.8463C34.9187 22.919 34.8017 23.0302 34.7197 23.1677C34.6378 23.3051 34.5942 23.4634 34.5938 23.625V34.125C34.5938 34.3571 34.5049 34.5796 34.3466 34.7437C34.1884 34.9078 33.9738 35 33.75 35H20.25C20.0262 35 19.8116 34.9078 19.6534 34.7437C19.4951 34.5796 19.4062 34.3571 19.4062 34.125V23.625C19.4058 23.4634 19.3622 23.3051 19.2803 23.1677C19.1983 23.0302 19.0813 22.919 18.9422 22.8463ZM32.9062 36.75V44.625H27.8438V36.75H32.9062ZM26.1562 36.75V44.625H21.0938V36.75H26.1562ZM51.4688 53.375H39.6562V52.5C39.6562 52.2679 39.5674 52.0454 39.4091 51.8813C39.2509 51.7172 39.0363 51.625 38.8125 51.625H15.1875C14.9637 51.625 14.7491 51.7172 14.5909 51.8813C14.4326 52.0454 14.3438 52.2679 14.3438 52.5V53.375H2.53125V48.125H15.1875C15.4113 48.125 15.6259 48.0328 15.7841 47.8687C15.9424 47.7046 16.0312 47.4821 16.0312 47.25V46.375H37.9688V47.25C37.9688 47.4821 38.0576 47.7046 38.2159 47.8687C38.3741 48.0328 38.5887 48.125 38.8125 48.125H51.4688V53.375Z" fill="#F45B66"/>
<path d="M6.69088 35.9799C6.73159 36.1973 6.84393 36.3931 7.00865 36.534C7.17337 36.6748 7.38021 36.7518 7.59369 36.7518C7.80717 36.7518 8.01401 36.6748 8.17873 36.534C8.34345 36.3931 8.45579 36.1973 8.4965 35.9799C9.01963 33.3549 9.40775 33.0224 11.1712 32.4274C11.3578 32.3614 11.5199 32.2365 11.6346 32.0701C11.7493 31.9038 11.811 31.7044 11.811 31.4999C11.811 31.2954 11.7493 31.096 11.6346 30.9297C11.5199 30.7634 11.3578 30.6385 11.1712 30.5724C9.40775 29.9774 9.01963 29.6362 8.4965 27.0199C8.45579 26.8026 8.34345 26.6067 8.17873 26.4659C8.01401 26.3251 7.80717 26.248 7.59369 26.248C7.38021 26.248 7.17337 26.3251 7.00865 26.4659C6.84393 26.6067 6.73159 26.8026 6.69088 27.0199C6.16775 29.6449 5.77963 29.9774 4.01619 30.5724C3.82955 30.6385 3.66751 30.7634 3.55277 30.9297C3.43803 31.096 3.37634 31.2954 3.37634 31.4999C3.37634 31.7044 3.43803 31.9038 3.55277 32.0701C3.66751 32.2365 3.82955 32.3614 4.01619 32.4274C5.77963 33.0224 6.16775 33.3637 6.69088 35.9799ZM7.59369 29.8549C7.89881 30.5366 8.39213 31.1091 9.01119 31.4999C8.39711 31.8814 7.90429 32.4411 7.59369 33.1099C7.28309 32.4411 6.79027 31.8814 6.17619 31.4999C6.79027 31.1185 7.28309 30.5587 7.59369 29.8899V29.8549ZM45.5034 27.0199C44.9803 29.6449 44.5921 29.9774 42.8287 30.5724C42.6421 30.6385 42.48 30.7634 42.3653 30.9297C42.2505 31.096 42.1888 31.2954 42.1888 31.4999C42.1888 31.7044 42.2505 31.9038 42.3653 32.0701C42.48 32.2365 42.6421 32.3614 42.8287 32.4274C44.5921 33.0224 44.9803 33.3637 45.5034 35.9799C45.5441 36.1973 45.6564 36.3931 45.8212 36.534C45.9859 36.6748 46.1927 36.7518 46.4062 36.7518C46.6197 36.7518 46.8265 36.6748 46.9912 36.534C47.1559 36.3931 47.2683 36.1973 47.309 35.9799C47.8321 33.3549 48.2203 33.0224 49.9837 32.4274C50.1703 32.3614 50.3324 32.2365 50.4471 32.0701C50.5618 31.9038 50.6235 31.7044 50.6235 31.4999C50.6235 31.2954 50.5618 31.096 50.4471 30.9297C50.3324 30.7634 50.1703 30.6385 49.9837 30.5724C48.2203 29.9774 47.8321 29.6362 47.309 27.0199C47.2683 26.8026 47.1559 26.6067 46.9912 26.4659C46.8265 26.3251 46.6197 26.248 46.4062 26.248C46.1927 26.248 45.9859 26.3251 45.8212 26.4659C45.6564 26.6067 45.5441 26.8026 45.5034 27.0199ZM47.8237 31.4999C47.2096 31.8814 46.7168 32.4411 46.4062 33.1099C46.0956 32.4411 45.6028 31.8814 44.9887 31.4999C45.6028 31.1185 46.0956 30.5587 46.4062 29.8899C46.7168 30.5587 47.2096 31.1185 47.8237 31.4999Z" fill="#F45B66"/>
<path d="M27.8438 24.5H26.1562V26.25H27.8438V24.5Z" fill="#F45B66"/>
<path d="M27.8438 28H26.1562V29.75H27.8438V28Z" fill="#F45B66"/>
<path d="M27.8438 31.5H26.1562V33.25H27.8438V31.5Z" fill="#F45B66"/>
</svg>
