<svg width="54" height="56" viewBox="0 0 54 56" fill="none" xmlns="http://www.w3.org/2000/svg">
<path d="M38.8378 17.1937L39.9938 15.995C40.7363 15.225 41.9512 15.225 42.6937 15.995L43.8497 17.1937C44.4825 17.85 45.5625 17.3862 45.5625 16.4587V8.75H37.125V16.4587C37.125 17.3862 38.205 17.85 38.8378 17.1937Z" fill="black"/>
<path d="M41.3438 43.75L43.875 41.125L35.4797 41.1687L35.4375 49.875L37.9688 47.25L43.0312 52.5L46.4062 49L41.3438 43.75Z" fill="black"/>
<path d="M9.28125 13.125C9.74724 13.125 10.125 12.7332 10.125 12.25C10.125 11.7668 9.74724 11.375 9.28125 11.375C8.81526 11.375 8.4375 11.7668 8.4375 12.25C8.4375 12.7332 8.81526 13.125 9.28125 13.125Z" fill="#F45B66"/>
<path d="M12.6562 13.125C13.1222 13.125 13.5 12.7332 13.5 12.25C13.5 11.7668 13.1222 11.375 12.6562 11.375C12.1903 11.375 11.8125 11.7668 11.8125 12.25C11.8125 12.7332 12.1903 13.125 12.6562 13.125Z" fill="#F45B66"/>
<path d="M16.0312 13.125C16.4972 13.125 16.875 12.7332 16.875 12.25C16.875 11.7668 16.4972 11.375 16.0312 11.375C15.5653 11.375 15.1875 11.7668 15.1875 12.25C15.1875 12.7332 15.5653 13.125 16.0312 13.125Z" fill="#F45B66"/>
<path d="M6.75 44.625H35.4628L35.4375 49C35.4375 49.3587 35.64 49.6738 35.9606 49.8138C36.2728 49.945 36.6356 49.875 36.8803 49.6213L38.8125 47.6087L43.2759 52.2375C43.4447 52.4125 43.6556 52.5 43.875 52.5C44.0944 52.5 44.3053 52.4125 44.4741 52.2463L47.8491 48.7463C48.1781 48.405 48.1781 47.8537 47.8491 47.5125L45.0647 44.625H47.25C49.5788 44.625 51.4688 42.665 51.4688 40.25V10.5C51.4688 8.085 49.5788 6.125 47.25 6.125H6.75C4.42125 6.125 2.53125 8.085 2.53125 10.5V40.25C2.53125 42.665 4.42125 44.625 6.75 44.625ZM46.0603 48.125L43.875 50.3913L39.4116 45.7625C39.2428 45.5875 39.0319 45.5 38.8125 45.5C38.5931 45.5 38.3822 45.5875 38.2134 45.7537L37.1334 46.8737L37.1588 41.16L42.6684 41.1337L41.5884 42.2537C41.2594 42.595 41.2594 43.1463 41.5884 43.4875L42.4322 44.3625L46.0603 48.125ZM38.8125 7.875H45.5625V15.5837C45.5625 15.61 45.5625 15.6975 45.4613 15.7325C45.36 15.7762 45.3094 15.715 45.2841 15.6975L44.1281 14.4987C43.0566 13.3875 41.3016 13.3875 40.23 14.4987L39.0741 15.6975C39.0572 15.715 38.9981 15.7762 38.8969 15.7325C38.8125 15.6975 38.8125 15.61 38.8125 15.5837V7.875ZM4.21875 10.5C4.21875 9.05625 5.35781 7.875 6.75 7.875H37.125V15.5837C37.125 16.3625 37.5722 17.0538 38.2641 17.3512C38.9559 17.6488 39.7491 17.4913 40.2722 16.94L41.4281 15.7413C41.8331 15.3212 42.5334 15.3212 42.9384 15.7413L44.0944 16.94C44.4487 17.3075 44.9212 17.5 45.3937 17.5C45.63 17.5 45.8747 17.4563 46.1025 17.3512C46.8028 17.0538 47.25 16.3625 47.25 15.5837V7.875C48.6422 7.875 49.7812 9.05625 49.7812 10.5V40.25C49.7812 41.6937 48.6422 42.875 47.25 42.875H43.3772L45.3094 40.8713C45.5541 40.6175 45.6216 40.2412 45.495 39.9175C45.3684 39.585 45.0478 39.3488 44.7188 39.375L36.3234 39.4188C35.8594 39.4188 35.4881 39.8125 35.4797 40.2938L35.4713 42.875H6.75C5.35781 42.875 4.21875 41.6937 4.21875 40.25V10.5Z" fill="#F45B66"/>
<path d="M22.7812 22.7498H39.6562C40.1203 22.7498 40.5 22.356 40.5 21.8748C40.5 21.3935 40.1203 20.9998 39.6562 20.9998H22.7812C22.3172 20.9998 21.9375 21.3935 21.9375 21.8748C21.9375 22.356 22.3172 22.7498 22.7812 22.7498ZM22.7812 29.7498H42.1875C42.6516 29.7498 43.0312 29.356 43.0312 28.8748C43.0312 28.3935 42.6516 27.9998 42.1875 27.9998H22.7812C22.3172 27.9998 21.9375 28.3935 21.9375 28.8748C21.9375 29.356 22.3172 29.7498 22.7812 29.7498ZM22.7812 36.7498H37.125C37.5891 36.7498 37.9688 36.356 37.9688 35.8748C37.9688 35.3935 37.5891 34.9998 37.125 34.9998H22.7812C22.3172 34.9998 21.9375 35.3935 21.9375 35.8748C21.9375 36.356 22.3172 36.7498 22.7812 36.7498ZM12.9009 24.246C13.0697 24.4123 13.2806 24.4998 13.5 24.4998C13.7194 24.4998 13.9303 24.4123 14.0991 24.246L17.4741 20.746C17.8031 20.4048 17.8031 19.8535 17.4741 19.5123C17.145 19.171 16.6134 19.171 16.2844 19.5123L13.5 22.391L12.4116 21.2623C12.0825 20.921 11.5509 20.921 11.2219 21.2623C10.8928 21.6035 10.8928 22.1548 11.2219 22.496L12.9009 24.246ZM12.9009 30.371C13.0697 30.5373 13.2806 30.6248 13.5 30.6248C13.7194 30.6248 13.9303 30.5373 14.0991 30.371L17.4741 26.871C17.8031 26.5298 17.8031 25.9785 17.4741 25.6373C17.145 25.296 16.6134 25.296 16.2844 25.6373L13.5 28.516L12.4116 27.3873C12.0825 27.046 11.5509 27.046 11.2219 27.3873C10.8928 27.7285 10.8928 28.2798 11.2219 28.621L12.9009 30.371ZM13.5 38.4998C14.8922 38.4998 16.0312 37.3185 16.0312 35.8748C16.0312 34.431 14.8922 33.2498 13.5 33.2498C12.1078 33.2498 10.9688 34.431 10.9688 35.8748C10.9688 37.3185 12.1078 38.4998 13.5 38.4998ZM13.5 34.9998C13.9641 34.9998 14.3438 35.3935 14.3438 35.8748C14.3438 36.356 13.9641 36.7498 13.5 36.7498C13.0359 36.7498 12.6562 36.356 12.6562 35.8748C12.6562 35.3935 13.0359 34.9998 13.5 34.9998Z" fill="#F45B66"/>
</svg>
