<svg width="54" height="56" viewBox="0 0 54 56" fill="none" xmlns="http://www.w3.org/2000/svg">
<path d="M50.2875 13.0374C49.5281 13.0374 48.8531 13.2999 48.2625 13.6499V13.0374C48.2625 10.7624 46.4062 8.8374 44.2125 8.8374C41.9344 8.8374 40.1625 10.7624 40.1625 13.0374V17.2374H39.15C38.8969 15.9249 37.8844 15.4874 36.7031 15.3124V13.2999C36.7031 11.4624 35.2687 10.0624 33.5812 10.0624C32.9062 10.0624 32.3156 10.2374 31.8094 10.6749C31.3031 9.6249 30.2063 8.8374 29.025 8.8374C28.0969 8.8374 27.3375 9.2749 26.7469 9.8874C26.1562 9.2749 25.3969 8.8374 24.4688 8.8374C22.8656 8.8374 21.5156 10.1499 21.3469 11.7249C20.7562 11.5499 20.25 11.3749 19.6594 11.3749C17.8875 11.3749 16.5375 12.8624 16.5375 14.6124V17.2374H13.8375V13.1249C13.8375 10.8499 11.9812 8.9249 9.7875 8.9249C7.50938 8.9249 5.7375 10.8499 5.7375 13.1249V13.6499C5.14688 13.2124 4.47188 13.0374 3.7125 13.0374C1.6875 13.0374 0 14.7874 0 16.8874V26.9499C0 29.0499 1.6875 30.7999 3.7125 30.7999C4.47188 30.7999 5.14688 30.5374 5.7375 30.1874V30.7999C5.7375 33.0749 7.59375 34.9999 9.7875 34.9999C12.0656 34.9999 13.8375 33.0749 13.8375 30.7999V26.5999H15.0187C14.85 28.5249 15.525 30.5374 16.875 32.3749C17.8875 33.6874 18.4781 35.4374 18.4781 37.2749V46.3749C18.4781 46.8999 18.8156 47.2499 19.3219 47.2499H32.4C32.9062 47.2499 33.2438 46.8999 33.2438 46.3749V37.3624C33.2438 35.6999 33.8344 33.9499 34.9313 32.2874C36.0281 30.6249 36.45 28.6124 36.7875 26.5124H40.0781V30.7124C40.0781 32.9874 41.9344 34.9124 44.1281 34.9124C46.4062 34.9124 48.1781 32.9874 48.1781 30.7124V30.0999C48.7687 30.5374 49.4437 30.7124 50.2031 30.7124C52.2281 30.7124 53.9156 28.9624 53.9156 26.8624V16.8874C54 14.6999 52.3125 13.0374 50.2875 13.0374ZM3.7125 29.0499C2.61563 29.0499 1.6875 28.0874 1.6875 26.9499V16.8874C1.6875 15.7499 2.61563 14.7874 3.7125 14.7874C4.89375 14.7874 5.7375 15.7499 5.7375 16.8874V26.9499C5.7375 28.0874 4.80937 29.0499 3.7125 29.0499ZM12.15 30.7124C12.15 32.0249 11.0531 33.1624 9.7875 33.1624C8.52188 33.1624 7.425 32.0249 7.425 30.7124V13.0374C7.425 11.7249 8.52188 10.5874 9.7875 10.5874C11.1375 10.5874 12.15 11.7249 12.15 13.0374V30.7124ZM33.4969 11.8999C34.3406 11.8999 34.9313 12.5999 34.9313 13.3874V15.5749C33.75 15.8374 32.7375 16.6249 32.0625 17.6749V13.3874C32.0625 12.5124 32.6531 11.8999 33.4969 11.8999ZM28.8563 10.5874C29.7 10.5874 30.2906 11.2874 30.2906 12.0749V18.3749C30.2906 19.2499 29.6156 19.8624 28.8563 19.8624C28.0969 19.8624 27.4219 19.1624 27.4219 18.3749V12.0749C27.4219 11.2874 28.0969 10.5874 28.8563 10.5874ZM22.8656 12.1624C22.8656 11.3749 23.5406 10.6749 24.3 10.6749C25.0594 10.6749 25.7344 11.3749 25.7344 12.1624V18.4624C25.7344 19.2499 25.0594 19.9499 24.3 19.9499C23.5406 19.9499 22.8656 19.2499 22.8656 18.4624V12.1624ZM18.225 14.6124C18.225 13.8249 18.9 13.1249 19.6594 13.1249C20.5031 13.1249 21.0938 13.8249 21.0938 14.6124V18.1999C21.0938 19.0749 20.4187 19.6874 19.6594 19.6874C18.9 19.6874 18.225 18.9874 18.225 18.1999V14.6124ZM13.8375 19.0749H16.6219C16.9594 20.4749 18.225 21.4374 19.6594 21.4374C20.5031 21.4374 21.2625 21.0874 21.8531 20.4749C22.4438 21.1749 23.2875 21.6124 24.2156 21.6124C25.1438 21.6124 25.9031 21.1749 26.4937 20.5624C27.0844 21.1749 27.8437 21.6124 28.7719 21.6124C29.4469 21.6124 30.0375 21.4374 30.5438 21.0874C30.2063 22.2249 29.7844 23.7124 29.5312 24.6749H13.8375C13.8375 24.7624 13.8375 19.0749 13.8375 19.0749ZM33.5812 31.2374C32.3156 33.1624 31.5563 35.2624 31.5563 37.2749V45.3249H20.25V37.0999C20.25 34.9124 19.575 32.7249 18.3094 31.0624C17.1281 29.4874 16.6219 27.9124 16.7906 26.3374H29.1937C29.1094 27.0374 29.1094 27.9124 29.4469 28.8749C29.6156 29.3124 30.1219 29.5749 30.5438 29.3124C30.9656 29.1374 31.2188 28.6124 30.9656 28.1749C30.7125 27.5624 30.6281 26.6874 30.9656 25.7249C31.3031 24.4999 32.5688 20.2124 32.6531 19.8624C33.2438 18.1124 34.5938 16.9749 36.1125 16.9749C36.7875 16.9749 37.7156 17.2374 37.3781 17.8499C36.0281 20.3874 35.6063 23.0124 35.2687 25.3749C34.9312 27.7374 34.5938 29.7499 33.5812 31.2374ZM37.125 24.7624C37.4625 22.8374 37.8 20.9124 38.8125 19.0749H40.1625V24.7624H37.125ZM46.575 30.7124C46.575 32.0249 45.4781 33.1624 44.2125 33.1624C42.9469 33.1624 41.85 32.0249 41.85 30.7124V13.0374C41.85 11.7249 42.9469 10.5874 44.2125 10.5874C45.5625 10.5874 46.575 11.7249 46.575 13.0374V30.7124ZM52.3125 26.9499C52.3125 28.0874 51.3844 29.0499 50.2875 29.0499C49.1906 29.0499 48.2625 28.0874 48.2625 26.9499V16.8874C48.2625 15.7499 49.1906 14.7874 50.2875 14.7874C51.3844 14.7874 52.3125 15.7499 52.3125 16.8874V26.9499Z" fill="url(#paint0_linear_36_35)"/>
<defs>
<linearGradient id="paint0_linear_36_35" x1="10.2727" y1="39.178" x2="44.8665" y2="5.81965" gradientUnits="userSpaceOnUse">
<stop offset="0.9999" stop-color="#FF7272"/>
<stop offset="1" stop-color="#6BE2DD"/>
</linearGradient>
</defs>
</svg>
